{
	"asset":{
		"generator":"Khronos glTF Blender I/O v4.1.63",
		"version":"2.0"
	},
	"extensionsUsed":[
		"KHR_materials_specular"
	],
	"scene":0,
	"scenes":[
		{
			"name":"Scene",
			"nodes":[
				0
			]
		}
	],
	"nodes":[
		{
			"mesh":0,
			"name":"symbol_prism_bevel.001",
			"rotation":[
				0.7071068286895752,
				0,
				0,
				0.7071068286895752
			]
		}
	],
	"materials":[
		{
			"doubleSided":true,
			"extensions":{
				"KHR_materials_specular":{
					"specularFactor":0
				}
			},
			"name":"default.002",
			"pbrMetallicRoughness":{
				"baseColorFactor":[
					0.800000011920929,
					0.800000011920929,
					0.800000011920929,
					1
				],
				"metallicFactor":0
			}
		}
	],
	"meshes":[
		{
			"name":"symbol_prism_bevel.001",
			"primitives":[
				{
					"attributes":{
						"POSITION":0,
						"NORMAL":1,
						"TEXCOORD_0":2
					},
					"indices":3,
					"material":0
				}
			]
		}
	],
	"accessors":[
		{
			"bufferView":0,
			"componentType":5126,
			"count":256649,
			"max":[
				66.02694702148438,
				4.527286052703857,
				-27.250797271728516
			],
			"min":[
				-66.02694702148438,
				-4.527286052703857,
				-127.35348510742188
			],
			"type":"VEC3"
		},
		{
			"bufferView":1,
			"componentType":5126,
			"count":256649,
			"type":"VEC3"
		},
		{
			"bufferView":2,
			"componentType":5126,
			"count":256649,
			"type":"VEC2"
		},
		{
			"bufferView":3,
			"componentType":5125,
			"count":485508,
			"type":"SCALAR"
		}
	],
	"bufferViews":[
		{
			"buffer":0,
			"byteLength":3079788,
			"byteOffset":0,
			"target":34962
		},
		{
			"buffer":0,
			"byteLength":3079788,
			"byteOffset":3079788,
			"target":34962
		},
		{
			"buffer":0,
			"byteLength":2053192,
			"byteOffset":6159576,
			"target":34962
		},
		{
			"buffer":0,
			"byteLength":1942032,
			"byteOffset":8212768,
			"target":34963
		}
	],
	"buffers":[
		{
			"byteLength":10154800,
			"uri":"cupra-logo.bin"
		}
	]
}
